<svg xmlns="http://www.w3.org/2000/svg" xmlns:xlink="http://www.w3.org/1999/xlink" width="500" zoomAndPan="magnify" viewBox="0 0 375 374.999991" height="500" preserveAspectRatio="xMidYMid meet" version="1.0"><defs><g/><clipPath id="a3e4c7b6a3"><path d="M 126.585938 100.1875 L 267.308594 100.1875 L 267.308594 240.910156 L 126.585938 240.910156 Z M 126.585938 100.1875 " clip-rule="nonzero"/></clipPath><clipPath id="d28fb2f1de"><path d="M 196.949219 100.1875 C 158.089844 100.1875 126.585938 131.6875 126.585938 170.546875 C 126.585938 209.40625 158.089844 240.910156 196.949219 240.910156 C 235.808594 240.910156 267.308594 209.40625 267.308594 170.546875 C 267.308594 131.6875 235.808594 100.1875 196.949219 100.1875 Z M 196.949219 100.1875 " clip-rule="nonzero"/></clipPath><clipPath id="1341cbac2f"><path d="M 0.585938 0.1875 L 141.308594 0.1875 L 141.308594 140.910156 L 0.585938 140.910156 Z M 0.585938 0.1875 " clip-rule="nonzero"/></clipPath><clipPath id="5ec6cf0379"><path d="M 70.949219 0.1875 C 32.089844 0.1875 0.585938 31.6875 0.585938 70.546875 C 0.585938 109.40625 32.089844 140.910156 70.949219 140.910156 C 109.808594 140.910156 141.308594 109.40625 141.308594 70.546875 C 141.308594 31.6875 109.808594 0.1875 70.949219 0.1875 Z M 70.949219 0.1875 " clip-rule="nonzero"/></clipPath><clipPath id="701e20052a"><rect x="0" width="142" y="0" height="141"/></clipPath><clipPath id="a12bc2f44d"><path d="M 128.109375 105.664062 L 273.601562 105.664062 L 273.601562 251.160156 L 128.109375 251.160156 Z M 128.109375 105.664062 " clip-rule="nonzero"/></clipPath><clipPath id="4cd196155d"><path d="M 200.855469 105.664062 C 160.679688 105.664062 128.109375 138.234375 128.109375 178.414062 C 128.109375 218.589844 160.679688 251.160156 200.855469 251.160156 C 241.03125 251.160156 273.601562 218.589844 273.601562 178.414062 C 273.601562 138.234375 241.03125 105.664062 200.855469 105.664062 Z M 200.855469 105.664062 " clip-rule="nonzero"/></clipPath><clipPath id="399f690480"><path d="M 0.109375 0.664062 L 145.601562 0.664062 L 145.601562 146.160156 L 0.109375 146.160156 Z M 0.109375 0.664062 " clip-rule="nonzero"/></clipPath><clipPath id="3333581a95"><path d="M 72.855469 0.664062 C 32.679688 0.664062 0.109375 33.234375 0.109375 73.414062 C 0.109375 113.589844 32.679688 146.160156 72.855469 146.160156 C 113.03125 146.160156 145.601562 113.589844 145.601562 73.414062 C 145.601562 33.234375 113.03125 0.664062 72.855469 0.664062 Z M 72.855469 0.664062 " clip-rule="nonzero"/></clipPath><clipPath id="902630eb05"><rect x="0" width="146" y="0" height="147"/></clipPath><clipPath id="66a4f93b23"><path d="M 145 187 L 263.175781 187 L 263.175781 235 L 145 235 Z M 145 187 " clip-rule="nonzero"/></clipPath><clipPath id="e50b37eca8"><path d="M 130.425781 189 L 199 189 L 199 201 L 130.425781 201 Z M 130.425781 189 " clip-rule="nonzero"/></clipPath><clipPath id="c8a3fe4041"><path d="M 248 136.773438 L 258 136.773438 L 258 158 L 248 158 Z M 248 136.773438 " clip-rule="nonzero"/></clipPath><clipPath id="0b67843d2d"><path d="M 243 155 L 263.175781 155 L 263.175781 171 L 243 171 Z M 243 155 " clip-rule="nonzero"/></clipPath><clipPath id="6516fea08c"><path d="M 131.738281 172.660156 L 165 172.660156 L 165 192.910156 L 131.738281 192.910156 Z M 131.738281 172.660156 " clip-rule="nonzero"/></clipPath><clipPath id="7831ba1a29"><path d="M 167 177 L 187.988281 177 L 187.988281 192.910156 L 167 192.910156 Z M 167 177 " clip-rule="nonzero"/></clipPath><clipPath id="ee9ba7bb1f"><path d="M 0.359375 12 L 21 12 L 21 37 L 0.359375 37 Z M 0.359375 12 " clip-rule="nonzero"/></clipPath><clipPath id="201f0bfb0a"><rect x="0" width="71" y="0" height="49"/></clipPath><clipPath id="0f813d1c6f"><rect x="0" width="54" y="0" height="138"/></clipPath></defs><g clip-path="url(#a3e4c7b6a3)"><g clip-path="url(#d28fb2f1de)"><g transform="matrix(1, 0, 0, 1, 126, 100)"><g clip-path="url(#701e20052a)"><g clip-path="url(#1341cbac2f)"><g clip-path="url(#5ec6cf0379)"><path fill="#fca700" d="M 0.585938 0.1875 L 141.308594 0.1875 L 141.308594 140.910156 L 0.585938 140.910156 Z M 0.585938 0.1875 " fill-opacity="1" fill-rule="nonzero"/></g></g></g></g></g></g><g clip-path="url(#a12bc2f44d)"><g clip-path="url(#4cd196155d)"><g transform="matrix(1, 0, 0, 1, 128, 105)"><g clip-path="url(#902630eb05)"><g clip-path="url(#399f690480)"><g clip-path="url(#3333581a95)"><path fill="#ffffff" d="M 0.109375 0.664062 L 145.601562 0.664062 L 145.601562 146.160156 L 0.109375 146.160156 Z M 0.109375 0.664062 " fill-opacity="1" fill-rule="nonzero"/></g></g></g></g></g></g><g clip-path="url(#66a4f93b23)"><path fill="#026900" d="M 263.097656 187.492188 C 250.421875 189.746094 237.695312 191.417969 225.300781 194.925781 C 229.648438 194.285156 233.992188 193.617188 238.363281 192.976562 C 238.058594 193.253906 237.75 193.3125 237.417969 193.394531 C 229.980469 194.898438 222.546875 196.347656 215.164062 197.933594 C 202.882812 200.578125 190.65625 203.53125 178.597656 207.070312 C 169.964844 209.605469 161.359375 212.25 153.140625 215.953125 C 150.605469 217.09375 148.15625 218.375 145.453125 219.683594 C 147.933594 221.859375 150.21875 223.890625 152.5 225.894531 C 152.722656 225.757812 152.835938 225.703125 152.945312 225.617188 C 157.207031 222.636719 161.71875 220.019531 166.398438 217.765625 C 176.230469 213.027344 186.421875 209.351562 196.867188 206.207031 C 207.367188 203.03125 218.035156 200.523438 228.8125 198.546875 C 230.871094 198.15625 232.933594 197.851562 234.996094 197.488281 C 234.855469 197.683594 234.660156 197.738281 234.492188 197.796875 C 231.011719 198.824219 227.53125 199.882812 224.050781 200.914062 C 213.855469 203.921875 203.746094 207.125 193.941406 211.21875 C 183.890625 215.425781 174.28125 220.382812 165.648438 227.09375 C 164.113281 228.292969 162.640625 229.542969 161.050781 230.855469 C 161.359375 231.046875 161.496094 231.132812 161.636719 231.214844 C 164.199219 232.414062 166.789062 233.582031 169.351562 234.808594 C 169.851562 235.058594 170.128906 234.949219 170.519531 234.558594 C 176.675781 228.488281 183.441406 223.222656 190.960938 218.90625 C 200.265625 213.558594 210.207031 209.714844 220.371094 206.34375 C 225.859375 204.535156 231.429688 202.863281 236.804688 200.71875 C 244.964844 197.460938 252.984375 193.785156 261.089844 190.386719 C 262.34375 189.859375 263.179688 189.273438 263.097656 187.824219 C 263.097656 187.742188 263.097656 187.65625 263.097656 187.492188 Z M 263.097656 187.492188 " fill-opacity="1" fill-rule="nonzero"/></g><g clip-path="url(#e50b37eca8)"><path fill="#026900" d="M 171.300781 196.542969 C 177.902344 197.378906 184.363281 198.910156 190.710938 200.886719 C 190.960938 200.96875 191.269531 200.996094 191.519531 200.941406 C 193.886719 200.328125 196.253906 199.714844 198.621094 199.074219 C 198.621094 198.992188 198.621094 198.910156 198.648438 198.851562 C 176.648438 189.859375 153.949219 187.769531 130.472656 192.253906 C 130.804688 193.5625 131.082031 194.703125 131.417969 195.816406 C 131.78125 196.960938 132.199219 198.074219 132.617188 199.269531 C 138.574219 197.515625 144.507812 196.515625 150.550781 196.039062 C 157.488281 195.511719 164.394531 195.679688 171.300781 196.542969 Z M 171.300781 196.542969 " fill-opacity="1" fill-rule="nonzero"/></g><path fill="#026900" d="M 175.367188 205.34375 C 176.007812 205.0625 176.730469 204.925781 177.398438 204.730469 C 179.542969 204.117188 181.6875 203.503906 183.832031 202.890625 C 167.457031 199.300781 151.386719 200.246094 135.429688 206.09375 C 136.988281 208.460938 138.4375 210.660156 139.886719 212.863281 C 148.851562 208.992188 158.070312 207.011719 167.652344 206.679688 C 170.269531 206.566406 172.886719 206.457031 175.367188 205.34375 Z M 175.367188 205.34375 " fill-opacity="1" fill-rule="nonzero"/><path fill="#026900" d="M 194.445312 223.5 C 189.042969 227.621094 184.335938 232.328125 180.046875 237.703125 C 188.652344 239.738281 197.144531 240.015625 205.917969 238.875 C 203.078125 232.941406 199.261719 227.902344 194.445312 223.5 Z M 194.445312 223.5 " fill-opacity="1" fill-rule="nonzero"/><path fill="#026900" d="M 218.226562 226.089844 C 214.914062 222.277344 211.070312 219.074219 206.894531 216.230469 C 206.671875 216.09375 206.226562 216.007812 206.003906 216.121094 C 203.71875 217.316406 201.492188 218.597656 199.121094 219.910156 C 205.195312 224.976562 210.347656 230.660156 213.996094 237.761719 C 217.503906 236.675781 220.957031 235.589844 224.523438 234.472656 C 224.300781 234.054688 224.160156 233.75 223.964844 233.5 C 222.070312 230.992188 220.289062 228.429688 218.226562 226.089844 Z M 218.226562 226.089844 " fill-opacity="1" fill-rule="nonzero"/><path fill="#026900" d="M 239.8125 225.089844 C 234.074219 219.492188 227.699219 214.839844 220.429688 211.414062 C 218.867188 210.691406 217.476562 210.382812 215.972656 211.332031 C 215.890625 211.386719 215.75 211.414062 215.667969 211.441406 C 214.300781 212 212.9375 212.582031 211.378906 213.222656 C 219.480469 217.929688 226.332031 223.722656 231.820312 231.105469 C 234.773438 229.265625 237.585938 227.539062 240.398438 225.8125 C 240.3125 225.617188 240.285156 225.5625 240.257812 225.507812 C 240.089844 225.367188 239.953125 225.226562 239.8125 225.089844 Z M 239.8125 225.089844 " fill-opacity="1" fill-rule="nonzero"/><path fill="#026900" d="M 253.515625 212.304688 C 257.441406 206.652344 260.171875 200.578125 261.898438 193.785156 C 253.570312 197.90625 245.382812 201.859375 236.722656 204.8125 C 242.542969 206.847656 248.222656 209.128906 253.515625 212.304688 Z M 253.515625 212.304688 " fill-opacity="1" fill-rule="nonzero"/><path fill="#026900" d="M 229.398438 206.566406 C 227.390625 207.238281 225.386719 207.933594 223.382812 208.628906 C 231.347656 211.914062 238.976562 215.621094 245.464844 221.160156 C 247.304688 219.433594 249.058594 217.792969 250.925781 216.066406 C 244.269531 211.75 237.335938 208.710938 229.980469 206.566406 C 229.785156 206.539062 229.5625 206.511719 229.398438 206.566406 Z M 229.398438 206.566406 " fill-opacity="1" fill-rule="nonzero"/><path fill="#026900" d="M 255.882812 171.113281 C 254.070312 173.648438 253.933594 176.710938 253.292969 179.664062 C 252.457031 176.769531 252.457031 173.703125 250.617188 171.167969 C 248.753906 168.609375 246.023438 167.382812 243.488281 166.101562 C 243.710938 167.800781 243.992188 169.554688 244.15625 171.335938 C 244.464844 174.734375 245.96875 177.324219 249.171875 178.773438 C 250.980469 179.582031 251.816406 181.058594 252.011719 182.921875 C 252.179688 184.59375 252.207031 186.292969 252.207031 187.992188 C 252.875 187.824219 253.542969 187.65625 254.238281 187.492188 C 254.324219 185.625 254.40625 183.785156 254.601562 181.976562 C 254.769531 180.554688 255.6875 179.523438 256.996094 178.941406 C 260.535156 177.324219 262.148438 174.511719 262.34375 170.695312 C 262.425781 169.164062 262.761719 167.632812 262.957031 166.15625 C 260.394531 167.269531 257.691406 168.550781 255.882812 171.113281 Z M 255.882812 171.113281 " fill-opacity="1" fill-rule="nonzero"/><g clip-path="url(#c8a3fe4041)"><path fill="#026900" d="M 253.347656 157.773438 C 259.417969 152.148438 259.335938 142.707031 253.207031 136.773438 C 248.417969 142.234375 245.578125 152.230469 253.347656 157.773438 Z M 253.347656 157.773438 " fill-opacity="1" fill-rule="nonzero"/></g><g clip-path="url(#0b67843d2d)"><path fill="#026900" d="M 248.308594 166.242188 C 250.257812 167.355469 252.707031 167.855469 253.292969 170.753906 C 253.933594 168.132812 256.023438 167.328125 257.945312 166.296875 C 260.3125 165.042969 261.703125 163.09375 262.066406 160.417969 C 262.289062 158.804688 262.679688 157.214844 263.097656 155.128906 C 260.644531 156.769531 258.304688 158.078125 256.300781 159.808594 C 254.128906 161.671875 253.820312 164.542969 253.265625 167.269531 C 252.597656 164.625 252.511719 161.671875 250.257812 159.835938 C 248.167969 158.136719 245.746094 156.828125 243.40625 155.296875 C 243.824219 157.410156 244.214844 159.167969 244.546875 160.921875 C 244.9375 163.261719 246.21875 165.042969 248.308594 166.242188 Z M 248.308594 166.242188 " fill-opacity="1" fill-rule="nonzero"/></g><path fill="#026900" d="M 259.921875 147.71875 C 260.117188 150.449219 259.449219 152.984375 257.945312 155.378906 C 261.117188 154.960938 262.289062 151.507812 259.921875 147.71875 Z M 259.921875 147.71875 " fill-opacity="1" fill-rule="nonzero"/><path fill="#026900" d="M 248.027344 155.351562 C 247.386719 152.816406 246.746094 150.308594 246.164062 148.054688 C 244.214844 151.230469 245.160156 154.988281 248.027344 155.351562 Z M 248.027344 155.351562 " fill-opacity="1" fill-rule="nonzero"/><path fill="#026900" d="M 234.605469 179.191406 C 233.15625 181.25 233.046875 183.703125 232.515625 186.070312 C 231.847656 183.757812 231.847656 181.28125 230.371094 179.21875 C 228.867188 177.15625 226.667969 176.183594 224.632812 175.125 C 224.828125 176.515625 225.050781 177.910156 225.191406 179.328125 C 225.441406 182.058594 226.640625 184.175781 229.230469 185.316406 C 230.707031 185.957031 231.375 187.15625 231.511719 188.660156 C 231.652344 190.023438 231.679688 191.390625 231.679688 192.753906 C 232.210938 192.613281 232.765625 192.476562 233.324219 192.335938 C 233.40625 190.832031 233.460938 189.355469 233.601562 187.878906 C 233.742188 186.738281 234.464844 185.902344 235.523438 185.429688 C 238.363281 184.121094 239.671875 181.863281 239.839844 178.800781 C 239.894531 177.574219 240.175781 176.351562 240.34375 175.152344 C 238.226562 176.097656 236.082031 177.128906 234.605469 179.191406 Z M 234.605469 179.191406 " fill-opacity="1" fill-rule="nonzero"/><path fill="#026900" d="M 232.542969 168.441406 C 237.417969 163.929688 237.363281 156.296875 232.433594 151.535156 C 228.589844 155.964844 226.304688 164.011719 232.542969 168.441406 Z M 232.542969 168.441406 " fill-opacity="1" fill-rule="nonzero"/><path fill="#026900" d="M 228.503906 175.265625 C 230.066406 176.15625 232.042969 176.546875 232.515625 178.882812 C 233.046875 176.769531 234.714844 176.128906 236.246094 175.292969 C 238.140625 174.289062 239.285156 172.730469 239.5625 170.558594 C 239.730469 169.25 240.0625 167.96875 240.398438 166.296875 C 238.421875 167.632812 236.527344 168.691406 234.910156 170.054688 C 233.15625 171.558594 232.90625 173.871094 232.460938 176.070312 C 231.929688 173.925781 231.875 171.558594 230.039062 170.082031 C 228.339844 168.71875 226.417969 167.660156 224.523438 166.433594 C 224.855469 168.132812 225.164062 169.554688 225.441406 170.976562 C 225.804688 172.867188 226.804688 174.316406 228.503906 175.265625 Z M 228.503906 175.265625 " fill-opacity="1" fill-rule="nonzero"/><path fill="#026900" d="M 237.863281 160.335938 C 238.03125 162.535156 237.472656 164.570312 236.277344 166.492188 C 238.808594 166.210938 239.757812 163.398438 237.863281 160.335938 Z M 237.863281 160.335938 " fill-opacity="1" fill-rule="nonzero"/><path fill="#026900" d="M 228.28125 166.492188 C 227.753906 164.457031 227.253906 162.425781 226.777344 160.613281 C 225.21875 163.175781 225.972656 166.210938 228.28125 166.492188 Z M 228.28125 166.492188 " fill-opacity="1" fill-rule="nonzero"/><g clip-path="url(#6516fea08c)"><path fill="#026900" d="M 135.40625 173.046875 C 135.40625 173.046875 135.761719 172.664062 136.011719 172.785156 C 136.261719 172.902344 136.285156 173.238281 136.441406 173.34375 C 136.597656 173.453125 138.144531 173.808594 138.40625 173.914062 C 138.667969 174.023438 138.917969 174.199219 139.488281 174.199219 C 140.058594 174.199219 140.75 174.199219 141.164062 174.199219 C 141.582031 174.199219 141.953125 174.164062 142.296875 174.25 C 142.640625 174.332031 143.128906 174.25 143.535156 174.238281 C 143.9375 174.222656 145.523438 174.082031 145.890625 174.082031 C 146.261719 174.082031 148.84375 173.988281 149.832031 173.925781 C 150.816406 173.867188 152.710938 173.628906 153.449219 173.628906 C 154.1875 173.628906 156.136719 173.5 156.507812 173.464844 C 156.875 173.425781 158.484375 173.378906 159.019531 173.332031 C 159.554688 173.285156 160.351562 173.558594 160.765625 173.820312 C 161.183594 174.082031 161.660156 174.890625 161.792969 175.332031 C 161.921875 175.773438 162.921875 180.960938 163.421875 181.792969 C 163.921875 182.628906 164.636719 184.199219 163.921875 186.222656 C 163.921875 186.222656 163.253906 184.148438 163.230469 183.769531 L 163.136719 184.269531 C 163.136719 184.269531 162.753906 182.269531 162.828125 181.699219 C 162.898438 181.128906 161.730469 177.867188 161.375 176.746094 C 161.375 176.746094 161.253906 179.316406 160.96875 180.4375 C 160.683594 181.554688 160.375 182.007812 160.921875 182.863281 C 161.46875 183.722656 162.328125 184.269531 162.300781 184.648438 C 162.277344 185.03125 162.230469 185.433594 162.414062 186.589844 C 162.601562 187.746094 163.152344 190.328125 163.261719 190.578125 C 163.367188 190.828125 163.640625 190.910156 163.628906 191.003906 C 163.617188 191.101562 163.5 191.339844 163.5 191.339844 L 163.671875 192.046875 L 161.570312 192.210938 C 161.570312 192.210938 161.941406 191.242188 161.953125 190.898438 C 161.964844 190.554688 161.214844 187.886719 160.878906 187.183594 C 160.546875 186.484375 159.75 185.351562 159.476562 185.125 C 159.203125 184.898438 159.171875 184.796875 159.171875 184.796875 C 159.171875 184.796875 159.046875 183.542969 159.558594 182.328125 C 159.558594 182.328125 158.75 183.792969 159.058594 184.949219 C 159.367188 186.101562 159.238281 186.292969 159.105469 186.542969 C 158.976562 186.792969 157.703125 189.015625 157.417969 189.683594 C 157.132812 190.351562 156.375 191.726562 156.351562 191.796875 C 156.328125 191.867188 156.296875 192.226562 156.132812 192.277344 C 155.964844 192.332031 155.667969 192.480469 155.667969 192.480469 L 155.636719 192.898438 L 153.929688 192.847656 C 153.929688 192.847656 154.351562 192 154.796875 191.730469 C 155.246094 191.464844 156.636719 188.703125 156.695312 187.070312 C 156.757812 185.441406 156.339844 185.082031 156.339844 184.347656 C 156.339844 183.609375 155.171875 182.300781 155.171875 182.300781 L 155.507812 182.988281 C 155.507812 182.988281 153.828125 183.691406 153.28125 184.023438 C 152.734375 184.359375 152.53125 184.679688 152.113281 184.75 C 151.699219 184.820312 151.589844 184.632812 151.328125 184.574219 C 151.066406 184.511719 150.652344 184.296875 150.4375 184.109375 C 150.222656 183.917969 149.542969 183.679688 148.882812 183.679688 C 148.222656 183.679688 147.550781 183.621094 147.359375 183.636719 C 147.167969 183.65625 144.957031 184.484375 144.957031 184.484375 L 146.171875 184.222656 C 146.171875 184.222656 146.21875 185.636719 146.21875 186.007812 C 146.21875 186.375 146.335938 186.601562 146.277344 186.828125 C 146.21875 187.054688 146.121094 187.542969 146.15625 187.886719 C 146.195312 188.230469 146.417969 189.925781 146.425781 190.175781 C 146.433594 190.425781 146.605469 190.570312 146.539062 190.738281 C 146.472656 190.902344 146.46875 191.355469 146.46875 191.398438 C 146.46875 191.4375 146.695312 192.28125 146.695312 192.28125 L 144.84375 192.492188 C 144.84375 192.492188 145.117188 191.476562 145.210938 191.214844 C 145.308594 190.949219 145.421875 189 145.320312 188.648438 C 145.21875 188.296875 144.058594 184.898438 144.058594 184.898438 C 144.058594 184.898438 142.773438 185.582031 142.585938 185.785156 C 142.402344 185.988281 141.707031 186.894531 141.710938 187.09375 C 141.71875 187.296875 141.699219 189.511719 141.664062 189.617188 C 141.628906 189.726562 141.863281 189.511719 141.914062 189.695312 C 141.96875 189.878906 142.070312 190.242188 142.070312 190.242188 C 142.070312 190.242188 142.261719 190.414062 142.316406 190.484375 C 142.367188 190.554688 142.113281 190.984375 142.113281 190.984375 L 141.65625 191.78125 C 141.65625 191.78125 141.570312 191.496094 141.214844 191.066406 C 140.859375 190.636719 140.367188 189.898438 140.378906 189.351562 C 140.390625 188.804688 140.546875 188.039062 140.546875 187.625 C 140.546875 187.207031 140.511719 186.285156 140.664062 185.660156 C 140.820312 185.035156 141.046875 184.730469 141.300781 184.578125 C 141.558594 184.421875 142.234375 183.917969 142.234375 183.917969 L 141.0625 184.496094 C 141.0625 184.496094 140.640625 183.882812 140.308594 183.683594 C 139.976562 183.488281 139.789062 183.464844 139.675781 183.285156 C 139.566406 183.109375 139.320312 183.183594 139.078125 182.773438 C 138.832031 182.363281 138.480469 181.894531 138.410156 181.453125 C 138.339844 181.011719 138.316406 180.609375 138.078125 180.40625 C 137.839844 180.203125 137.828125 180.15625 137.636719 180.050781 C 137.445312 179.941406 137.03125 180.273438 136.445312 180.203125 C 135.863281 180.132812 135.804688 180.214844 135.636719 180.0625 C 135.46875 179.90625 135.304688 179.761719 135.089844 179.714844 C 134.875 179.667969 134.910156 179.738281 134.613281 179.464844 C 134.316406 179.191406 134.304688 179.074219 133.996094 179.050781 C 133.683594 179.027344 133.621094 179.246094 133.359375 179.246094 C 133.097656 179.246094 132.785156 178.996094 132.65625 178.996094 C 132.523438 178.996094 132.351562 179.074219 132.269531 178.9375 C 132.1875 178.800781 131.738281 178.3125 131.804688 178.179688 C 131.871094 178.050781 131.917969 177.777344 132.046875 177.667969 C 132.179688 177.5625 132.421875 177.371094 132.632812 177.019531 C 132.839844 176.667969 133.472656 175.964844 133.476562 175.757812 C 133.484375 175.550781 133.613281 175.039062 133.859375 174.679688 C 134.101562 174.324219 134.441406 173.859375 135.40625 173.046875 Z M 135.40625 173.046875 " fill-opacity="1" fill-rule="evenodd"/></g><g clip-path="url(#7831ba1a29)"><path fill="#026900" d="M 187.140625 189.246094 C 187.140625 189.246094 187.640625 189.117188 187.703125 188.960938 C 187.765625 188.800781 187.472656 188.460938 187.308594 188.359375 C 187.140625 188.253906 186.925781 188.269531 186.925781 188.269531 C 186.925781 188.269531 186.507812 187.765625 186.492188 187.636719 C 186.476562 187.511719 186.417969 187.019531 186.238281 186.902344 C 186.054688 186.78125 185.785156 186.679688 185.523438 186.664062 C 185.261719 186.648438 184.90625 186.609375 184.691406 186.8125 C 184.480469 187.019531 184.414062 187.136719 184.414062 187.136719 C 184.414062 187.136719 184.558594 186.742188 184.621094 186.6875 C 184.683594 186.632812 184.898438 186.480469 184.898438 186.480469 C 184.898438 186.480469 183.28125 184.714844 182.585938 183.542969 C 181.886719 182.367188 181.332031 181.132812 181.03125 180.703125 C 180.730469 180.277344 180.320312 180.039062 179.957031 179.800781 C 179.589844 179.5625 179.273438 178.929688 178.734375 178.914062 C 178.195312 178.898438 177.722656 179.167969 176.882812 178.976562 C 176.042969 178.789062 174.949219 177.996094 174.21875 177.980469 C 173.492188 177.964844 173.742188 178.089844 172.539062 177.882812 C 171.335938 177.679688 170.542969 177.550781 170.226562 177.804688 C 169.910156 178.058594 169.925781 178.265625 169.480469 178.375 C 169.039062 178.488281 168.136719 178.851562 168.136719 179.136719 C 168.136719 179.421875 168.070312 180.152344 167.882812 180.6875 C 167.835938 180.816406 167.804688 180.921875 167.785156 181.011719 C 167.785156 181.011719 167.574219 181.65625 167.808594 182.683594 C 168.046875 183.714844 167.890625 185.441406 167.890625 186.203125 C 167.890625 186.964844 167.445312 188.5 167.445312 189.039062 C 167.445312 189.578125 167.554688 190.734375 167.554688 190.734375 C 167.554688 190.734375 168.078125 189.53125 168.078125 188.878906 C 168.078125 188.230469 168.046875 187.976562 168.015625 187.375 C 167.984375 186.773438 168.160156 184.96875 168.191406 184.714844 C 168.207031 184.578125 168.207031 183.894531 168.203125 183.277344 C 168.234375 183.441406 168.265625 183.605469 168.292969 183.761719 C 168.421875 184.460938 168.800781 185.617188 168.976562 185.996094 C 169.148438 186.378906 169.511719 187.25 169.5625 187.882812 C 169.609375 188.515625 169.664062 188.9375 169.855469 189.515625 C 170.042969 190.09375 170.164062 190.433594 170.171875 190.640625 C 170.179688 190.847656 170.1875 191.695312 170.1875 191.804688 C 170.1875 191.914062 170.148438 192.507812 170.148438 192.507812 L 171.136719 192.753906 C 171.136719 192.753906 171.132812 192.617188 171.09375 192.4375 L 171.4375 192.527344 L 172.039062 192.515625 C 172.039062 192.515625 171.867188 192.097656 171.835938 191.980469 C 171.804688 191.859375 171.820312 191.273438 171.820312 191.019531 C 171.820312 190.765625 171.804688 190.25 171.828125 190.015625 C 171.851562 189.777344 171.96875 189.285156 172.050781 189.0625 C 172.128906 188.839844 172.128906 188.398438 172.144531 188.035156 C 172.152344 187.816406 172.226562 187.429688 172.28125 187.160156 C 172.652344 187.328125 172.996094 187.484375 173.140625 187.628906 C 173.316406 187.804688 173.539062 188.105469 173.695312 188.105469 C 173.855469 188.105469 174.234375 187.789062 174.566406 187.675781 C 174.902344 187.566406 174.820312 187.644531 174.820312 187.644531 L 174.871094 186.757812 C 174.871094 186.757812 174.863281 187.96875 174.835938 188.398438 C 174.8125 188.824219 174.78125 189.601562 174.796875 189.839844 C 174.8125 190.078125 174.851562 190.617188 174.8125 190.75 C 174.773438 190.886719 174.558594 191.488281 174.394531 191.742188 C 174.226562 191.996094 174.300781 192.066406 174.332031 192.25 C 174.363281 192.429688 174.203125 192.746094 174.203125 192.746094 L 175.3125 192.804688 C 175.3125 192.804688 175.28125 192.390625 175.234375 192.082031 C 175.1875 191.773438 175.132812 191.410156 175.328125 191.082031 C 175.527344 190.757812 175.972656 190.464844 176.027344 189.957031 C 176.082031 189.453125 176.035156 189.175781 176.152344 188.9375 C 176.273438 188.699219 176.421875 187.953125 176.421875 187.953125 C 176.421875 187.953125 176.96875 187.992188 177.167969 188.015625 C 177.363281 188.042969 177.484375 188.175781 177.601562 188.382812 C 177.722656 188.585938 178.203125 188.9375 178.261719 188.992188 C 178.316406 189.046875 178.238281 189.246094 178.1875 189.585938 C 178.140625 189.925781 178.246094 190.371094 178.292969 190.601562 C 178.339844 190.828125 178.308594 191.234375 178.308594 191.234375 C 178.308594 191.234375 178.164062 191.542969 178.164062 191.757812 C 178.164062 191.96875 178.125 192.445312 178.132812 192.507812 C 178.140625 192.574219 178.148438 192.867188 178.148438 192.867188 L 179.304688 192.898438 C 179.304688 192.898438 179.125 192.382812 179.027344 192.105469 C 178.933594 191.828125 178.863281 191.472656 178.917969 191.148438 C 178.972656 190.824219 179.019531 190.546875 179.109375 190.371094 C 179.195312 190.195312 179.257812 190.085938 179.28125 189.855469 C 179.304688 189.625 179.296875 188.644531 179.296875 188.644531 L 179.402344 189.214844 C 179.402344 189.214844 179.84375 189.269531 180.058594 189.214844 C 180.273438 189.160156 180.328125 189.078125 180.46875 189.167969 C 180.613281 189.253906 180.722656 189.371094 180.84375 189.277344 C 180.960938 189.183594 181.230469 188.859375 181.421875 188.785156 C 181.609375 188.714844 181.863281 188.707031 181.945312 188.824219 C 182.023438 188.945312 182.199219 189.128906 182.394531 189.214844 C 182.59375 189.300781 182.539062 189.523438 182.65625 189.65625 C 182.777344 189.792969 182.917969 189.917969 182.980469 190 C 183.042969 190.078125 183.320312 190.519531 183.605469 190.671875 C 183.890625 190.824219 184.074219 191.15625 184.136719 191.335938 C 184.203125 191.519531 184.511719 191.964844 184.636719 192.074219 C 184.765625 192.183594 185.253906 192.722656 185.738281 192.796875 C 186.222656 192.867188 187.046875 192.785156 187.03125 192.558594 C 187.015625 192.328125 187.015625 192.035156 186.964844 191.789062 C 186.917969 191.542969 186.6875 190.464844 186.722656 190.234375 C 186.753906 190.007812 186.949219 189.246094 187.140625 189.246094 Z M 171.027344 192.199219 C 171.019531 192.167969 171.007812 192.136719 170.996094 192.105469 C 170.867188 191.789062 170.804688 191.566406 170.742188 191.179688 C 170.679688 190.789062 170.757812 189.746094 170.671875 189.183594 C 170.582031 188.621094 170.621094 186.347656 170.621094 186.347656 C 170.621094 186.347656 170.703125 186.386719 170.832031 186.453125 C 170.859375 186.839844 170.941406 187.925781 170.957031 188.050781 C 170.972656 188.199219 171.011719 188.738281 171.019531 188.839844 C 171.027344 188.945312 171.089844 189.925781 171.160156 190.496094 C 171.234375 191.066406 171.050781 191.589844 171.035156 191.78125 C 171.027344 191.882812 171.027344 192.058594 171.027344 192.199219 Z M 171.027344 192.199219 " fill-opacity="1" fill-rule="evenodd"/></g><g transform="matrix(1, 0, 0, 1, 147, 128)"><g clip-path="url(#201f0bfb0a)"><g clip-path="url(#ee9ba7bb1f)"><g fill="#00bf63" fill-opacity="1"><g transform="translate(0.596875, 36.204502)"><g><path d="M 19.671875 -23.328125 L 18.875 -18.84375 L 9.375 -18.84375 L 8.515625 -13.828125 L 15.625 -13.828125 L 14.828125 -9.5 L 7.703125 -9.5 L 6.046875 0 L 0.359375 0 L 4.484375 -23.328125 Z M 19.671875 -23.328125 "/></g></g></g></g><g fill="#026900" fill-opacity="1"><g transform="translate(18.776476, 36.204502)"><g><path d="M 11.46875 0.234375 C 9.5 0.234375 7.765625 -0.175781 6.265625 -1 C 4.765625 -1.820312 3.601562 -2.972656 2.78125 -4.453125 C 1.96875 -5.941406 1.5625 -7.648438 1.5625 -9.578125 C 1.5625 -12.296875 2.144531 -14.722656 3.3125 -16.859375 C 4.488281 -19.003906 6.125 -20.671875 8.21875 -21.859375 C 10.3125 -23.054688 12.691406 -23.65625 15.359375 -23.65625 C 17.347656 -23.65625 19.09375 -23.25 20.59375 -22.4375 C 22.101562 -21.632812 23.269531 -20.492188 24.09375 -19.015625 C 24.914062 -17.546875 25.328125 -15.859375 25.328125 -13.953125 C 25.328125 -11.234375 24.738281 -8.789062 23.5625 -6.625 C 22.382812 -4.46875 20.742188 -2.785156 18.640625 -1.578125 C 16.535156 -0.367188 14.144531 0.234375 11.46875 0.234375 Z M 12.328125 -5.015625 C 13.785156 -5.015625 15.066406 -5.390625 16.171875 -6.140625 C 17.285156 -6.898438 18.144531 -7.914062 18.75 -9.1875 C 19.363281 -10.457031 19.671875 -11.835938 19.671875 -13.328125 C 19.671875 -14.921875 19.226562 -16.171875 18.34375 -17.078125 C 17.457031 -17.984375 16.21875 -18.4375 14.625 -18.4375 C 13.15625 -18.4375 11.863281 -18.0625 10.75 -17.3125 C 9.632812 -16.5625 8.769531 -15.554688 8.15625 -14.296875 C 7.550781 -13.046875 7.25 -11.671875 7.25 -10.171875 C 7.25 -8.578125 7.691406 -7.316406 8.578125 -6.390625 C 9.460938 -5.472656 10.710938 -5.015625 12.328125 -5.015625 Z M 12.328125 -5.015625 "/></g></g></g><g fill="#064201" fill-opacity="1"><g transform="translate(44.884874, 36.204502)"><g><path d="M 15.625 -4.125 L 6.90625 -4.125 L 4.78125 0 L -1.15625 0 L 11.40625 -23.328125 L 17.984375 -23.328125 L 22.296875 0 L 16.28125 0 Z M 14.953125 -8.4375 L 13.59375 -17.078125 L 9.140625 -8.4375 Z M 14.953125 -8.4375 "/></g></g></g></g></g><g transform="matrix(1, 0, 0, 1, 102, 114)"><g clip-path="url(#0f813d1c6f)"><g fill="#000000" fill-opacity="1"><g transform="translate(29.76227, 4.619044)"><g><path d="M -2.15625 6.453125 L -0.296875 3.515625 L -1.390625 2.171875 L -0.125 0.1875 L 5.921875 8.015625 L 4.515625 10.21875 L -5.140625 8.0625 L -3.84375 6.03125 Z M -0.375 6.90625 L 3.109375 7.765625 L 0.84375 4.96875 Z M -0.375 6.90625 "/></g></g></g><g fill="#000000" fill-opacity="1"><g transform="translate(22.241703, 17.06947)"><g><path d="M 3.015625 8.953125 C 3.359375 8.921875 3.671875 8.796875 3.953125 8.578125 C 4.234375 8.359375 4.457031 8.050781 4.625 7.65625 C 4.925781 6.988281 4.941406 6.351562 4.671875 5.75 C 4.398438 5.15625 3.898438 4.695312 3.171875 4.375 C 2.390625 4.03125 1.6875 3.972656 1.0625 4.203125 C 0.4375 4.441406 -0.0351562 4.929688 -0.359375 5.671875 C -0.585938 6.191406 -0.648438 6.679688 -0.546875 7.140625 C -0.441406 7.597656 -0.179688 8.015625 0.234375 8.390625 L 1.390625 5.765625 L 2.90625 6.4375 L 0.921875 10.9375 L -1 10.09375 C -1.445312 9.707031 -1.8125 9.234375 -2.09375 8.671875 C -2.382812 8.109375 -2.539062 7.484375 -2.5625 6.796875 C -2.59375 6.117188 -2.453125 5.421875 -2.140625 4.703125 C -1.773438 3.867188 -1.257812 3.203125 -0.59375 2.703125 C 0.0625 2.203125 0.796875 1.910156 1.609375 1.828125 C 2.421875 1.753906 3.25 1.90625 4.09375 2.28125 C 4.925781 2.644531 5.59375 3.15625 6.09375 3.8125 C 6.59375 4.46875 6.878906 5.203125 6.953125 6.015625 C 7.035156 6.835938 6.890625 7.664062 6.515625 8.5 C 6.066406 9.519531 5.441406 10.269531 4.640625 10.75 C 3.847656 11.238281 2.972656 11.40625 2.015625 11.25 Z M 3.015625 8.953125 "/></g></g></g><g fill="#000000" fill-opacity="1"><g transform="translate(16.647103, 30.828793)"><g><path d="M -1.453125 5.375 L 2.421875 4.421875 L 2.5625 3.890625 L -0.8125 2.96875 L -0.21875 0.796875 L 8.75 3.234375 L 7.75 6.90625 C 7.5625 7.601562 7.273438 8.164062 6.890625 8.59375 C 6.503906 9.03125 6.0625 9.3125 5.5625 9.4375 C 5.070312 9.570312 4.5625 9.566406 4.03125 9.421875 C 3.4375 9.253906 2.953125 8.9375 2.578125 8.46875 C 2.203125 8.007812 2.003906 7.429688 1.984375 6.734375 L -2.125 7.828125 Z M 4.125 4.3125 L 3.765625 5.671875 C 3.648438 6.078125 3.660156 6.40625 3.796875 6.65625 C 3.941406 6.90625 4.191406 7.078125 4.546875 7.171875 C 4.890625 7.265625 5.179688 7.238281 5.421875 7.09375 C 5.671875 6.945312 5.851562 6.671875 5.96875 6.265625 L 6.328125 4.90625 Z M 4.125 4.3125 "/></g></g></g><g fill="#000000" fill-opacity="1"><g transform="translate(13.55164, 43.757375)"><g><path d="M 8.71875 4.4375 L -0.46875 3.046875 L -0.125 0.8125 L 9.0625 2.203125 Z M 8.71875 4.4375 "/></g></g></g><g fill="#000000" fill-opacity="1"><g transform="translate(12.357071, 52.284514)"><g><path d="M 4.640625 0.5625 C 5.554688 0.59375 6.367188 0.816406 7.078125 1.234375 C 7.785156 1.648438 8.328125 2.21875 8.703125 2.9375 C 9.085938 3.664062 9.269531 4.476562 9.25 5.375 C 9.21875 6.476562 8.898438 7.414062 8.296875 8.1875 C 7.703125 8.957031 6.894531 9.457031 5.875 9.6875 L 5.9375 7.203125 C 6.332031 7.023438 6.632812 6.769531 6.84375 6.4375 C 7.0625 6.101562 7.175781 5.71875 7.1875 5.28125 C 7.207031 4.582031 6.976562 4.007812 6.5 3.5625 C 6.03125 3.125 5.390625 2.890625 4.578125 2.859375 C 3.765625 2.835938 3.109375 3.035156 2.609375 3.453125 C 2.117188 3.878906 1.863281 4.441406 1.84375 5.140625 C 1.832031 5.578125 1.921875 5.96875 2.109375 6.3125 C 2.304688 6.65625 2.59375 6.925781 2.96875 7.125 L 2.90625 9.609375 C 1.914062 9.316406 1.140625 8.769531 0.578125 7.96875 C 0.0234375 7.164062 -0.234375 6.210938 -0.203125 5.109375 C -0.179688 4.210938 0.0351562 3.410156 0.453125 2.703125 C 0.878906 2.003906 1.453125 1.46875 2.171875 1.09375 C 2.898438 0.71875 3.722656 0.539062 4.640625 0.5625 Z M 4.640625 0.5625 "/></g></g></g><g fill="#000000" fill-opacity="1"><g transform="translate(12.332728, 67.150646)"><g><path d="M 9.59375 1.875 L 4.078125 2.5625 C 3.523438 2.632812 3.117188 2.820312 2.859375 3.125 C 2.597656 3.425781 2.5 3.84375 2.5625 4.375 C 2.625 4.894531 2.820312 5.273438 3.15625 5.515625 C 3.488281 5.765625 3.929688 5.851562 4.484375 5.78125 L 10 5.09375 L 10.28125 7.34375 L 4.78125 8.03125 C 3.957031 8.132812 3.238281 8.046875 2.625 7.765625 C 2.007812 7.484375 1.519531 7.066406 1.15625 6.515625 C 0.789062 5.960938 0.566406 5.328125 0.484375 4.609375 C 0.390625 3.867188 0.445312 3.191406 0.65625 2.578125 C 0.875 1.972656 1.25 1.46875 1.78125 1.0625 C 2.3125 0.664062 2.988281 0.414062 3.8125 0.3125 L 9.3125 -0.375 Z M 9.59375 1.875 "/></g></g></g><g fill="#000000" fill-opacity="1"><g transform="translate(14.474675, 81.032846)"><g><path d="M 2.46875 2.546875 L 3.21875 5.40625 L 1.53125 5.84375 L 0.203125 0.796875 L 9.203125 -1.546875 L 9.78125 0.640625 Z M 2.46875 2.546875 "/></g></g></g><g fill="#000000" fill-opacity="1"><g transform="translate(17.493681, 91.623922)"><g><path d="M 11.421875 3.53125 L 9.734375 4.203125 L 8.8125 1.921875 L 1.859375 4.6875 L 1.03125 2.578125 L 7.984375 -0.1875 L 7.0625 -2.46875 L 8.75 -3.140625 Z M 11.421875 3.53125 "/></g></g></g><g fill="#000000" fill-opacity="1"><g transform="translate(22.401054, 103.197296)"><g><path d="M 9.59375 -1.96875 L 4.765625 0.796875 C 4.273438 1.066406 3.960938 1.394531 3.828125 1.78125 C 3.703125 2.175781 3.773438 2.601562 4.046875 3.0625 C 4.304688 3.519531 4.632812 3.796875 5.03125 3.890625 C 5.4375 3.984375 5.882812 3.894531 6.375 3.625 L 11.203125 0.859375 L 12.328125 2.828125 L 7.5 5.578125 C 6.78125 5.992188 6.082031 6.1875 5.40625 6.15625 C 4.726562 6.132812 4.113281 5.9375 3.5625 5.5625 C 3.019531 5.195312 2.570312 4.695312 2.21875 4.0625 C 1.851562 3.414062 1.648438 2.769531 1.609375 2.125 C 1.578125 1.488281 1.726562 0.878906 2.0625 0.296875 C 2.394531 -0.273438 2.921875 -0.769531 3.640625 -1.1875 L 8.46875 -3.9375 Z M 9.59375 -1.96875 "/></g></g></g><g fill="#000000" fill-opacity="1"><g transform="translate(29.703666, 115.245334)"><g><path d="M 3.421875 4.390625 L 5 0.703125 L 4.65625 0.265625 L 1.890625 2.421875 L 0.515625 0.65625 L 7.84375 -5.0625 L 10.171875 -2.078125 C 10.617188 -1.492188 10.898438 -0.914062 11.015625 -0.34375 C 11.128906 0.21875 11.085938 0.734375 10.890625 1.203125 C 10.703125 1.671875 10.390625 2.078125 9.953125 2.421875 C 9.460938 2.796875 8.921875 2.992188 8.328125 3.015625 C 7.734375 3.035156 7.144531 2.84375 6.5625 2.4375 L 4.984375 6.390625 Z M 5.921875 -0.71875 L 6.796875 0.390625 C 7.046875 0.722656 7.316406 0.90625 7.609375 0.9375 C 7.898438 0.976562 8.1875 0.882812 8.46875 0.65625 C 8.75 0.4375 8.90625 0.1875 8.9375 -0.09375 C 8.96875 -0.382812 8.859375 -0.695312 8.609375 -1.03125 L 7.734375 -2.140625 Z M 5.921875 -0.71875 "/></g></g></g><g fill="#000000" fill-opacity="1"><g transform="translate(38.196752, 125.544556)"><g><path d="M 7.4375 -3.1875 L 6.125 -1.84375 L 8.28125 0.28125 L 7.046875 1.53125 L 4.890625 -0.59375 L 3.46875 0.859375 L 5.921875 3.265625 L 4.65625 4.5625 L 0.59375 0.578125 L 7.109375 -6.0625 L 11.171875 -2.078125 L 9.890625 -0.78125 Z M 7.4375 -3.1875 "/></g></g></g></g></g></svg>